<svg xmlns="http://www.w3.org/2000/svg" viewBox="0 0 64 64" id="3d">
  <path fill="#231f20" d="m32 10.828-9.5 5.486 9.5 5.484 9.5-5.484zm-2 19.109-12.5-7.216-3 1.731-.5.289v4.041l9 5.196v2.309l-5.5-3.176-3 1.732-.5.29v4.041l9 5.196v2.309l-5.5-3.175-3 1.732-.5.29v4.041l12 6.928.5.289.5-.289 3-1.731V35.842l.192.111.5-.865-.692-.4v-4.751zM26 55.34l-11-6.35v-2.309l9 5.195v-8.083l-9-5.196v-2.309l9 5.196V33.4l-9-5.196v-2.309l11 6.352V55.34zm21.75-27.279c-.116-.067-.236-.119-.355-.175l.005-.009-2.528-1.46a4.355 4.355 0 0 0-.336-.194l-.136-.079-.008.013a4.484 4.484 0 0 0-4.143.172L34 29.937v4.751l-.692.4.5.865.192-.111v18.922l3 1.731.5.289.5-.289 9.75-5.63A4.51 4.51 0 0 0 50 46.969V31.958a4.453 4.453 0 0 0-2.25-3.897zM49 46.969A3.51 3.51 0 0 1 47.25 50L38 55.34V32.247l5.75-3.321a3.465 3.465 0 0 1 3.5.001A3.465 3.465 0 0 1 49 31.958v15.011z"></path>
  <path fill="#231f20" d="M45.749 31.525a2.47 2.47 0 0 0-2.499.001L40 33.401v18.476l5.749-3.319A2.506 2.506 0 0 0 47 46.392V33.69c0-.905-.468-1.713-1.251-2.165zM46 43.794l-5 2.887V33.979l2.75-1.588a1.485 1.485 0 0 1 1.5 0c.47.27.75.757.75 1.299v10.104zM29.326 8.762l.866-.5.5.864-.866.5zM19.867 15.375H20v-.076l.3-.174-.5-.865-.8.461v.654h.711zM32 8.371l.442.254.5-.865L32 7.216l-.942.544.5.865zM24.13 11.761l.866-.5.5.865-.866.5zM27.594 9.762l.866-.5.5.864-.866.5zM25.862 10.761l.865-.5.5.865-.865.5zM20.666 13.761l.866-.5.5.865-.866.5zM19 20.375h1v1h-1zm0 2h1v1h-1zm0-4h1v1h-1zm0-2h1v1h-1zM22.397 12.762l.866-.5.5.865-.866.5zM44 20.375h1v1h-1zm0 2h1v1h-1zm0 2h1v1h-1zm0-9h1v-.654l-.8-.461-.5.865.3.174zm0 1h1v1h-1zm0 2h1v1h-1zM35.04 10.125l.5-.865.866.5-.5.865zM36.772 11.127l.5-.865.865.5-.5.864zM33.308 9.125l.5-.865.866.5-.5.865zM38.504 12.125l.5-.865.866.5-.5.865zM41.968 14.125l.5-.865.866.5-.5.865zM40.237 13.124l.5-.865.865.5-.499.865zM32.442 35.588l-.442.254-.442-.254-.5.865.942.544.942-.544zM33 28.937l6.25-3.607a4.441 4.441 0 0 1 2.74-.562l.01-.002V17.18l-9.5 5.484v10.653l.5-.289v-4.091zm-1.5 4.38V22.664L22 17.179v6.562l9 5.196v4.091z"></path>
</svg>
